<svg id="card-icon" xmlns="http://www.w3.org/2000/svg" width="19.372" height="20" viewBox="0 0 19.372 20">
  <path id="Tracé_2442" data-name="Tracé 2442" d="M32.795,14.446a1.324,1.324,0,0,0-.844-.579L25.4,12.474a.333.333,0,0,0-.4.326V23.68a.67.67,0,0,1-.669.669h-4.8a.333.333,0,0,0-.326.265l-.19.9A1.335,1.335,0,0,0,20.043,27.1l8.7,1.847a1.323,1.323,0,0,0,.28.03,1.34,1.34,0,0,0,1.306-1.059l2.646-12.47A1.319,1.319,0,0,0,32.795,14.446Z" transform="translate(-13.637 -8.978)" fill="#fff"/>
  <path id="Tracé_2443" data-name="Tracé 2443" d="M4.278,2h9.356A1.336,1.336,0,0,1,14.97,3.336V16.7a1.336,1.336,0,0,1-1.336,1.336H4.278A1.336,1.336,0,0,1,2.942,16.7V3.336A1.336,1.336,0,0,1,4.278,2Z" transform="translate(-2.942 -2)" fill="#fff"/>
  <path id="Tracé_2444" data-name="Tracé 2444" d="M22.1,7.469a1.324,1.324,0,0,0-.844-.579L14.97,5.552V3.336A1.337,1.337,0,0,0,13.634,2H4.278A1.337,1.337,0,0,0,2.942,3.336V16.7a1.337,1.337,0,0,0,1.336,1.336H8.425l-.105.5a1.335,1.335,0,0,0,1.028,1.586l8.7,1.848a1.325,1.325,0,0,0,.28.03,1.34,1.34,0,0,0,1.306-1.059l2.646-12.47A1.319,1.319,0,0,0,22.1,7.469Zm-17.822,9.9a.67.67,0,0,1-.669-.669V3.336a.67.67,0,0,1,.669-.669h9.356a.67.67,0,0,1,.669.669V16.7a.67.67,0,0,1-.669.669Zm17.354-9.04h0L18.986,20.8a.67.67,0,0,1-.291.424.662.662,0,0,1-.5.093L9.486,19.47a.668.668,0,0,1-.514-.795l.134-.638h4.528A1.337,1.337,0,0,0,14.97,16.7V6.234l6.148,1.308a.663.663,0,0,1,.423.29.656.656,0,0,1,.092.5Z" transform="translate(-2.942 -2)" fill="#acacac"/>
</svg>
