<svg xmlns="http://www.w3.org/2000/svg" width="20.002" height="20.001" viewBox="0 0 20.002 20.001">
  <g id="dashboard-icon" transform="translate(0 0)">
    <path id="Union_1" data-name="Union 1" d="M-10741,12592a2,2,0,0,1-2-2v-5a2,2,0,0,1,2-2h5a2,2,0,0,1,2,2v5a2,2,0,0,1-2,2Zm-11,0a2,2,0,0,1-2-2v-5a2,2,0,0,1,2-2h5a2,2,0,0,1,2,2v5a2,2,0,0,1-2,2Zm11-11a2,2,0,0,1-2-2v-5a2,2,0,0,1,2-2h5a2,2,0,0,1,2,2v5a2,2,0,0,1-2,2Zm-11,0a2,2,0,0,1-2-2v-5a2,2,0,0,1,2-2h5a2,2,0,0,1,2,2v5a2,2,0,0,1-2,2Z" transform="translate(10754.001 -12571.999)" fill="#fff"/>
  </g>
</svg>
