<svg id="heart-filled-icon" xmlns="http://www.w3.org/2000/svg" width="20.968" height="20" viewBox="0 0 20.968 20">
  <path id="_9abaa1c69bebfbf5726b0a7d30ce813f" data-name="9abaa1c69bebfbf5726b0a7d30ce813f" d="M6.584,0A6.521,6.521,0,0,1,8.5.348h.062A.366.366,0,0,1,8.66.41a3.688,3.688,0,0,1,.66.275h0l.4.179c.157.084.346.241.451.305a3.186,3.186,0,0,1,.315.2A6.55,6.55,0,0,1,14.52,0a6.1,6.1,0,0,1,1.95.305c3.87,1.263,5.264,5.526,4.1,9.252a13.406,13.406,0,0,1-3.155,5.062,40.34,40.34,0,0,1-6.637,5.221h0L10.515,20l-.273-.169a39.958,39.958,0,0,1-6.677-5.221A13.621,13.621,0,0,1,.409,9.558C-.776,5.832.619,1.569,4.53.283a4.722,4.722,0,0,1,.932-.22h.126A6.055,6.055,0,0,1,6.468,0h.115Zm9.341,3.326a.839.839,0,0,0-1.059.526.862.862,0,0,0,.524,1.083,1.762,1.762,0,0,1,1.122,1.653h0v.033a.907.907,0,0,0,.2.653.877.877,0,0,0,.6.305.864.864,0,0,0,.828-.8h0V6.653A3.474,3.474,0,0,0,15.925,3.326Z" transform="translate(0 0)" fill="#fff"/>
</svg>
