<svg id="heart-filled-icon" xmlns="http://www.w3.org/2000/svg" width="32" height="30.523" viewBox="0 0 32 30.523">
  <path id="_9abaa1c69bebfbf5726b0a7d30ce813f" data-name="9abaa1c69bebfbf5726b0a7d30ce813f" d="M10.048,0a9.952,9.952,0,0,1,2.93.53h.094a.559.559,0,0,1,.144.095,5.628,5.628,0,0,1,1.008.419h0l.608.273c.24.129.528.368.688.466a4.863,4.863,0,0,1,.48.3A10,10,0,0,1,22.16,0a9.313,9.313,0,0,1,2.976.466c5.906,1.928,8.034,8.434,6.256,14.121a20.459,20.459,0,0,1-4.814,7.725,61.565,61.565,0,0,1-10.129,7.968h0l-.4.243-.416-.259A60.983,60.983,0,0,1,5.442,22.3,20.788,20.788,0,0,1,.624,14.587C-1.184,8.9.944,2.394,6.914.432A7.207,7.207,0,0,1,8.336.1h.192A9.241,9.241,0,0,1,9.872,0h.176ZM24.3,5.077a1.28,1.28,0,0,0-1.616.8,1.315,1.315,0,0,0,.8,1.653A2.69,2.69,0,0,1,25.2,10.055h0v.05a1.385,1.385,0,0,0,.3,1,1.339,1.339,0,0,0,.912.466,1.318,1.318,0,0,0,1.264-1.223h0v-.191A5.3,5.3,0,0,0,24.3,5.077Z" transform="translate(0 0)" fill="#333"/>
</svg>
