<svg id="home-icon" xmlns="http://www.w3.org/2000/svg" width="20" height="21.053" viewBox="0 0 20 21.053">
  <path id="_2ae66759f9bda47bb5a4c88130dd24db" data-name="2ae66759f9bda47bb5a4c88130dd24db" d="M6.984,19.761V16.543a1.493,1.493,0,0,1,1.5-1.488h3.025a1.5,1.5,0,0,1,1.06.436,1.482,1.482,0,0,1,.439,1.052v3.219a1.277,1.277,0,0,0,.375.912,1.3,1.3,0,0,0,.916.379h2.064A3.642,3.642,0,0,0,18.934,20,3.589,3.589,0,0,0,20,17.45V8.281a2.6,2.6,0,0,0-.943-2L12.036.711A3.26,3.26,0,0,0,7.879.786L1.018,6.279A2.6,2.6,0,0,0,0,8.281v9.16a3.625,3.625,0,0,0,3.638,3.612H5.655a1.3,1.3,0,0,0,1.3-1.282Z" transform="translate(0 0)" fill="#fff"/>
</svg>
