<svg id="profile-icon" xmlns="http://www.w3.org/2000/svg" width="20" height="20" viewBox="0 0 20 20">
  <path id="be831d4d557ca96619be92ba9247a9d6" d="M15.571,9.143a6.429,6.429,0,1,1-6.429,6.429A6.429,6.429,0,0,1,15.571,9.143Zm0,2.857a.714.714,0,0,0-.714.714v2.143H12.714a.714.714,0,0,0,0,1.429h2.143v2.143a.714.714,0,0,0,1.429,0V16.286h2.143a.714.714,0,0,0,0-1.429H16.286V12.714A.714.714,0,0,0,15.571,12ZM9.51,10.571a7.873,7.873,0,0,0-1.5,7.143H7.8c-3.611,0-5.661-1.207-5.793-3.639L2,13.821V12.714a2.143,2.143,0,0,1,1.936-2.133l.206-.01ZM7.714,2A3.572,3.572,0,1,1,4.142,5.572,3.572,3.572,0,0,1,7.714,2Zm7.143,1.429a2.858,2.858,0,0,1,2.366,4.46,7.9,7.9,0,0,0-4.459.342,2.857,2.857,0,0,1,2.093-4.8Z" transform="translate(-2 -2)" fill="#fff"/>
</svg>
