<svg id="setting-wheel-icon" xmlns="http://www.w3.org/2000/svg" width="24.005" height="24" viewBox="0 0 24.005 24">
  <path id="f0f5c51b8785e91d4ad5698eab3ef88d" d="M22.537,9.593H21.389a.956.956,0,0,1-.792-.614,8.59,8.59,0,0,0-.384-.914.934.934,0,0,1,.122-.989l.82-.82a1.471,1.471,0,0,0,0-2.077L19.827,2.851a1.465,1.465,0,0,0-1.041-.431,1.446,1.446,0,0,0-1.041.431l-.816.82a.843.843,0,0,1-.586.211.878.878,0,0,1-.4-.089,9.19,9.19,0,0,0-.914-.384.95.95,0,0,1-.614-.792V1.467A1.474,1.474,0,0,0,12.94,0H11.065A1.47,1.47,0,0,0,9.6,1.467V2.616a.95.95,0,0,1-.614.792,9.156,9.156,0,0,0-.914.38.942.942,0,0,1-.4.089.843.843,0,0,1-.586-.211l-.816-.816a1.471,1.471,0,0,0-2.082,0L2.851,4.182a1.466,1.466,0,0,0,0,2.077l.82.82a.944.944,0,0,1,.127.989,9.682,9.682,0,0,0-.384.914.95.95,0,0,1-.792.614H1.472A1.468,1.468,0,0,0,0,11.065V12.94a1.47,1.47,0,0,0,1.467,1.467H2.616a.95.95,0,0,1,.792.614,8.588,8.588,0,0,0,.384.914.935.935,0,0,1-.127.989l-.82.82a1.471,1.471,0,0,0,0,2.077l1.332,1.332a1.471,1.471,0,0,0,2.082,0l.82-.82a.843.843,0,0,1,.586-.211.878.878,0,0,1,.4.089,8.168,8.168,0,0,0,.914.38.95.95,0,0,1,.614.792v1.149A1.47,1.47,0,0,0,11.065,24H12.94a1.474,1.474,0,0,0,1.472-1.467V21.384a.95.95,0,0,1,.614-.792,9.157,9.157,0,0,0,.914-.38.927.927,0,0,1,.4-.089.843.843,0,0,1,.586.211l.816.82a1.471,1.471,0,0,0,2.082,0l1.327-1.332a1.471,1.471,0,0,0,0-2.077l-.816-.816a.934.934,0,0,1-.122-.989,8.168,8.168,0,0,0,.38-.914.95.95,0,0,1,.792-.614h1.149A1.47,1.47,0,0,0,24,12.945v-1.88A1.474,1.474,0,0,0,22.537,9.593ZM12,16.311A4.309,4.309,0,1,1,16.311,12,4.312,4.312,0,0,1,12,16.311Z" fill="#333"/>
</svg>
