<svg id="setting-wheel-icon" xmlns="http://www.w3.org/2000/svg" width="20.004" height="20" viewBox="0 0 20.004 20">
  <path id="f0f5c51b8785e91d4ad5698eab3ef88d" d="M18.781,7.994h-.957a.8.8,0,0,1-.66-.512,7.158,7.158,0,0,0-.32-.762.778.778,0,0,1,.1-.824l.684-.684a1.226,1.226,0,0,0,0-1.731L16.523,2.375a1.221,1.221,0,0,0-.867-.359,1.2,1.2,0,0,0-.867.359l-.68.684a.7.7,0,0,1-.488.176.732.732,0,0,1-.336-.074,7.658,7.658,0,0,0-.762-.32.792.792,0,0,1-.512-.66V1.223A1.228,1.228,0,0,0,10.783,0H9.221A1.225,1.225,0,0,0,8,1.223V2.18a.792.792,0,0,1-.512.66,7.63,7.63,0,0,0-.762.316.785.785,0,0,1-.336.074A.7.7,0,0,1,5.9,3.055l-.68-.68a1.226,1.226,0,0,0-1.735,0l-1.11,1.11a1.221,1.221,0,0,0,0,1.731l.684.684a.787.787,0,0,1,.105.824,8.068,8.068,0,0,0-.32.762A.792.792,0,0,1,2.184,8H1.227A1.223,1.223,0,0,0,0,9.221v1.563a1.225,1.225,0,0,0,1.223,1.223H2.18a.792.792,0,0,1,.66.512,7.157,7.157,0,0,0,.32.762.779.779,0,0,1-.105.824l-.684.684a1.226,1.226,0,0,0,0,1.731l1.11,1.11a1.226,1.226,0,0,0,1.735,0l.684-.684a.7.7,0,0,1,.488-.176.732.732,0,0,1,.336.074,6.807,6.807,0,0,0,.762.316A.792.792,0,0,1,8,17.82v.957A1.225,1.225,0,0,0,9.221,20h1.563a1.228,1.228,0,0,0,1.227-1.223V17.82a.792.792,0,0,1,.512-.66,7.631,7.631,0,0,0,.762-.316.772.772,0,0,1,.336-.074.7.7,0,0,1,.488.176l.68.684a1.226,1.226,0,0,0,1.735,0l1.106-1.11a1.226,1.226,0,0,0,0-1.731l-.68-.68a.778.778,0,0,1-.1-.824,6.807,6.807,0,0,0,.316-.762.792.792,0,0,1,.66-.512h.957A1.225,1.225,0,0,0,20,10.787V9.221A1.228,1.228,0,0,0,18.781,7.994ZM10,13.593A3.591,3.591,0,1,1,13.593,10,3.593,3.593,0,0,1,10,13.593Z" fill="#fff"/>
</svg>
