<svg id="statistic-icon" xmlns="http://www.w3.org/2000/svg" width="20" height="19.324" viewBox="0 0 20 19.324">
  <path id="Tracé_2441" data-name="Tracé 2441" d="M45.352,32.125a.666.666,0,0,0-.664.669v8a.668.668,0,0,0,.329.581l6.93,4a.667.667,0,0,0,.91-.246,8.669,8.669,0,0,0-7.506-13Zm.669,1.365a7.336,7.336,0,0,1,5.994,10.377l-5.994-3.459Zm-3.332.624a8.668,8.668,0,1,0,7.505,13,.667.667,0,0,0-.246-.91l-6.6-3.81V34.779a.666.666,0,0,0-.663-.665Z" transform="translate(-34.019 -32.125)" fill="#fff"/>
</svg>
