<svg id="dashboard-icon" xmlns="http://www.w3.org/2000/svg" width="24" height="24" viewBox="0 0 24 24">
  <path id="Union_1" data-name="Union 1" d="M15.2,24a2,2,0,0,1-2-2V15.2a2,2,0,0,1,2-2H22a2,2,0,0,1,2,2V22a2,2,0,0,1-2,2ZM2,24a2,2,0,0,1-2-2V15.2a2,2,0,0,1,2-2H8.8a2,2,0,0,1,2,2V22a2,2,0,0,1-2,2ZM15.2,10.8a2,2,0,0,1-2-2V2a2,2,0,0,1,2-2H22a2,2,0,0,1,2,2V8.8a2,2,0,0,1-2,2ZM2,10.8a2,2,0,0,1-2-2V2A2,2,0,0,1,2,0H8.8a2,2,0,0,1,2,2V8.8a2,2,0,0,1-2,2Z" transform="translate(-0.001 -0.001)" fill="#333"/>
</svg>
